<svg xmlns="http://www.w3.org/2000/svg" viewBox="0 0 32 32" fill="none" aria-hidden="true">
  <rect width="32" height="32" rx="6" fill="#0f172a" />
  <path
    fill="#fbbf24"
    stroke="#b45309"
    stroke-width="0.5"
    d="M16 4c-4.5 0-8 3-8 7v1h16v-1c0-4-3.5-7-8-7Z"
  />
  <ellipse cx="16" cy="11" rx="7.5" ry="2.2" fill="#fde68a" stroke="#b45309" stroke-width="0.4" />
  <path stroke="#b45309" stroke-width="0.6" fill="none" d="M9 11c0 4 2.5 7 7 7s7-3 7-7" />
  <path fill="#64748b" d="M12 26h8v2H12v-2Z" />
  <path fill="#94a3b8" d="M14 18h4v8h-4v-8Z" />
  <path fill="#fbbf24" stroke="#b45309" stroke-width="0.35" d="M6 11h4v1H6v-1Zm16 0h4v1h-4v-1Z" />
</svg>
